<?xml version="1.0" encoding="UTF-8"?>
<svg width="2324px" height="2324px" viewBox="0 0 2324 2324" version="1.1" xmlns="http://www.w3.org/2000/svg" xmlns:xlink="http://www.w3.org/1999/xlink">
    <!-- Generator: Sketch 54.1 (76490) - https://sketchapp.com -->
    <title>logo-outline-white</title>
    <desc>Created with Sketch.</desc>
    <g id="logo-outline-white" stroke="none" stroke-width="1" fill="none" fill-rule="evenodd">
        <g id="Logo" transform="translate(87.000000, 87.000000)">
            <circle id="Oval" stroke="#FFFFFF" stroke-width="40" cx="1075" cy="1075" r="1055"></circle>
            <circle id="Oval" stroke="#FFFFFF" stroke-width="40" cx="1070" cy="1075" r="280"></circle>
            <circle id="Oval" stroke="#FFFFFF" stroke-width="40" cx="1075" cy="1075" r="70"></circle>
            <g id="Main_Text" transform="translate(258.000000, 183.000000)" fill="#FFFFFF" fill-rule="nonzero">
                <path d="M298.529852,1625.97007 C295.294371,1623.10698 292.25938,1620.02498 289.446316,1616.74583 C286.649514,1613.4456 284.169706,1609.88928 282.03974,1606.12397 C279.879284,1602.39926 278.100148,1598.46602 276.729366,1594.38403 C275.309782,1590.25872 274.326188,1585.99604 273.794685,1581.66576 C273.442691,1577.38698 273.442691,1573.08651 273.794685,1568.80773 C274.066441,1564.47241 274.721144,1560.16962 275.751139,1555.9497 C276.783018,1551.75169 278.137941,1547.63977 279.803793,1543.65071 C281.20126,1539.87716 282.738474,1535.82408 284.694928,1531.77101 C286.651382,1527.71793 288.607836,1524.2239 290.843783,1520.45035 C293.07973,1516.6768 295.315678,1513.18276 297.831119,1509.54897 C300.346559,1505.91518 301.324786,1504.23805 304.958201,1499.06688 C308.591615,1493.89572 308.312122,1493.75596 311.945536,1488.58479 L318.932872,1478.24246 C322.566286,1473.0713 322.426539,1472.93153 325.920207,1467.76037 C329.413875,1462.5892 329.693368,1462.72897 333.187036,1457.41804 L340.174371,1447.07571 L347.301454,1436.73338 L354.568282,1426.39105 C358.06195,1421.21988 357.782457,1420.94036 361.276125,1415.7692 C362.613293,1413.95701 365.143112,1413.52505 367.00574,1414.79087 L376.927756,1421.49941 L386.710026,1428.48747 L396.771789,1435.05624 C398.613403,1436.2984 399.112011,1438.7917 397.889762,1440.64669 C394.396095,1445.95762 394.116601,1445.6781 390.622933,1450.98902 L383.495851,1461.33135 L376.508516,1471.67368 C372.875101,1476.98461 373.154595,1477.12437 369.52118,1482.29554 C365.887766,1487.4667 365.887766,1487.32694 362.394098,1492.4981 C358.90043,1497.66927 358.90043,1497.80903 355.406763,1502.9802 C351.913095,1508.15136 351.773348,1508.15136 348.279681,1513.32253 C344.786013,1518.49369 344.786013,1518.63345 341.292345,1523.80462 C337.798677,1528.97578 337.519184,1528.97578 334.025516,1534.14695 C330.531849,1539.31811 329.274128,1541.27477 327.457421,1544.48928 C325.430811,1547.9924 323.656198,1551.63541 322.147046,1555.39065 C320.429718,1559.11942 319.072663,1563.00381 318.094391,1566.99083 C317.20226,1570.99481 317.20226,1575.14609 318.094391,1579.15006 C319.212499,1583.11311 321.329776,1586.72248 324.243247,1589.63215 C329.970038,1595.56524 336.80762,1600.31406 344.366773,1603.60827 C348.061856,1605.3699 352.180429,1606.04833 356.245243,1605.56493 C360.291396,1604.95967 364.128874,1603.37655 367.42498,1600.95281 C370.870041,1598.754 374.057569,1596.17558 376.927756,1593.26594 C379.742026,1590.28353 382.40074,1587.15806 384.893318,1583.90194 C387.129266,1580.96696 389.784453,1577.89221 392.299894,1574.25842 L396.212802,1568.38845 C403.060391,1558.32564 401.942417,1559.72325 406.274565,1553.29423 L413.401647,1542.9519 C416.895315,1537.78074 417.035061,1537.78074 420.668476,1532.60957 L427.655811,1522.26724 C431.289226,1517.09608 431.009732,1516.81656 434.5034,1511.64539 L441.630482,1501.30306 L448.617818,1490.82097 L455.7449,1480.47864 C456.334007,1479.61518 457.254851,1479.0348 458.287902,1478.87585 C459.320953,1478.7169 460.373646,1478.99363 461.195022,1479.64007 C466.225903,1482.99434 466.225903,1482.85458 471.256785,1486.34861 L481.178801,1492.91739 L491.240564,1499.76569 C493.034459,1501.05182 493.469349,1503.53717 492.218791,1505.35614 L485.091709,1515.69847 L478.104373,1526.18056 C474.610706,1531.35172 474.331212,1531.21196 470.837544,1536.38313 L463.850209,1546.86522 L456.862874,1557.34731 L449.875538,1567.68964 L442.748456,1578.17173 L435.621374,1588.51406 L428.634038,1598.99615 C426.118598,1602.62994 423.603157,1606.12397 420.947969,1609.47824 C418.339392,1612.89458 415.540002,1616.16087 412.563167,1619.26153 C409.711925,1622.4613 406.679074,1625.49447 403.479631,1628.34601 C400.12571,1631.42075 396.771789,1634.07622 393.417868,1636.59192 C389.785605,1638.97407 386.004728,1641.12146 382.098384,1643.02094 C378.234879,1644.90684 374.21339,1646.45013 370.080167,1647.63306 C365.916159,1648.70351 361.65639,1649.35893 357.363217,1649.58971 C353.040866,1650.0018 348.689123,1650.0018 344.366773,1649.58971 C340.146464,1648.83053 335.988997,1647.75601 331.929316,1646.37521 C327.859507,1644.97153 323.890712,1643.29045 320.050845,1641.3438 C316.192964,1639.38582 312.459318,1637.19207 308.871109,1634.77502 C305.206862,1632.10514 301.749905,1629.16175 298.529852,1625.97007 L298.529852,1625.97007 Z" id="Shape"></path>
                <path d="M514.019278,1735.68262 L502.420301,1732.60788 C501.419026,1732.32084 500.580935,1731.63261 500.104562,1730.70624 C499.62819,1729.77986 499.555915,1728.69775 499.90486,1727.71623 C501.58182,1721.14746 501.442074,1721.14746 503.258781,1714.71844 C505.075488,1708.28942 505.215235,1708.14966 507.031942,1701.72065 C508.848649,1695.29163 508.429409,1695.15187 510.246116,1688.72285 C512.062824,1682.29384 512.342317,1682.29384 514.159024,1675.86482 C515.975731,1669.43581 515.835985,1669.29604 517.652692,1662.72727 C519.469399,1656.15849 519.329653,1656.29825 521.14636,1649.86924 C522.963067,1643.44022 522.683574,1643.30046 524.500281,1636.73168 L528.133695,1623.73389 C529.950402,1617.30487 530.229896,1617.44463 532.046603,1610.87586 C533.86331,1604.30708 533.583817,1604.30708 535.400524,1597.87806 L539.033938,1584.88027 C540.710899,1578.45125 540.990392,1578.45125 542.8071,1572.02224 C544.623807,1565.59322 544.204567,1565.45346 546.021274,1558.88468 C547.837981,1552.31591 547.977728,1552.59543 549.794435,1546.02665 L553.42785,1533.02886 C553.686235,1532.07091 554.325052,1531.26029 555.196,1530.78518 C556.066949,1530.31006 557.094276,1530.21179 558.039491,1530.51316 L569.638468,1533.5879 L581.237445,1536.80241 L592.836421,1539.7374 C595.1926,1540.38118 597.012642,1542.25495 597.58781,1544.62904 C599.26477,1551.33758 599.125023,1551.33758 600.801984,1558.60516 C602.478944,1565.87274 602.199451,1565.3137 603.876412,1572.58128 L606.950839,1586.5574 C608.488053,1593.12618 608.767546,1593.12618 610.30476,1599.69496 C611.841974,1606.26374 611.841974,1606.26374 613.518934,1613.67108 C615.195895,1621.07842 614.916402,1620.23986 616.593362,1626.80863 C618.270323,1633.37741 618.270323,1633.51717 619.807536,1640.78476 C621.34475,1648.05234 621.34475,1647.35353 622.881964,1654.06207 C624.419178,1660.77061 624.698671,1660.63085 626.375632,1667.19963 C628.052592,1673.7684 627.633352,1673.90816 629.310313,1680.47694 C629.310313,1680.47694 629.310313,1680.47694 629.310313,1680.47694 C629.310313,1680.47694 629.310313,1680.47694 629.310313,1680.47694 C631.266766,1673.7684 630.70778,1674.04793 632.80398,1666.50082 C634.201447,1661.32966 634.760434,1661.05013 636.297648,1655.18016 C637.834862,1649.31019 638.114355,1648.75115 639.791316,1642.46189 C641.468276,1636.17264 641.188783,1636.03288 643.00549,1629.74362 C644.822197,1623.45437 644.961944,1623.45437 646.638904,1617.16511 L650.272319,1604.44684 C651.949279,1598.01782 652.089026,1598.15759 653.765987,1591.72857 C655.442947,1585.29955 655.163454,1585.29955 656.980161,1579.0103 C658.796868,1572.72104 658.936615,1572.72104 660.613575,1566.43179 C661.163028,1564.27735 663.34537,1562.96781 665.50471,1563.4968 L677.103687,1566.71131 L688.562917,1569.92582 L700.161894,1573.14033 C702.316105,1573.68984 703.625511,1575.87241 703.096575,1578.03197 L699.463161,1591.02976 C697.646453,1597.59854 697.506707,1597.45878 695.689999,1604.02756 C693.873292,1610.59633 694.013039,1610.45657 692.196332,1616.88559 L688.562917,1629.88338 C686.74621,1636.45216 687.025703,1636.45216 685.208996,1642.88117 C683.392289,1649.31019 683.392289,1649.44995 681.715328,1655.87897 C680.038368,1662.30798 679.758875,1662.44775 677.942167,1668.87676 C676.12546,1675.30578 676.265207,1675.44554 674.4485,1681.87455 C672.631792,1688.30357 672.771539,1688.44333 670.954832,1694.87235 C669.138125,1701.30136 668.998378,1701.30136 667.181671,1707.73038 C665.364964,1714.1594 665.364964,1714.29916 663.548256,1720.72817 C661.731549,1727.15719 662.011042,1727.29695 660.194335,1733.72597 C658.377628,1740.15498 658.098135,1740.15498 656.281427,1746.72376 C654.46472,1753.29254 654.744214,1753.15278 652.927506,1759.72155 C651.110799,1766.29033 651.110799,1766.15057 649.294092,1772.57958 C649.066054,1773.59925 648.425485,1774.47872 647.524976,1775.00849 C646.624467,1775.53825 645.544634,1775.67089 644.542704,1775.37481 C638.673342,1773.83744 638.813089,1773.69767 632.943727,1772.02054 C627.074365,1770.34341 627.074365,1770.76269 621.34475,1769.22532 L609.88552,1765.73129 C607.517398,1765.19727 605.668088,1763.34777 605.134132,1760.9794 L601.780211,1747.84185 C600.242997,1741.13331 600.242997,1741.13331 598.566037,1734.56453 C596.889076,1727.99576 597.168569,1727.856 595.631356,1720.58841 C594.094142,1713.32083 594.094142,1714.01963 592.556928,1707.3111 C591.019714,1700.60256 590.740221,1700.74232 589.06326,1694.17354 C587.3863,1687.60476 587.3863,1687.60476 585.849086,1681.03599 C584.311872,1674.46721 584.591366,1674.32745 582.914405,1667.05987 L579.839978,1653.92231 C578.163017,1647.35353 578.163017,1647.35353 576.625803,1639.94619 C575.088589,1632.53884 574.809096,1633.37741 573.271882,1626.80863 C573.271882,1626.80863 573.271882,1626.80863 573.271882,1626.80863 C573.271882,1626.80863 573.271882,1626.80863 573.271882,1626.80863 L569.917961,1639.52691 C568.241001,1645.81616 568.241001,1645.81616 566.424293,1652.24518 C564.607586,1658.67419 564.747333,1658.53443 562.930626,1664.96345 L559.576705,1677.54196 L556.222784,1690.39999 L552.589369,1702.9785 C550.772662,1709.26775 550.632915,1709.26775 548.955955,1715.55701 C547.278994,1721.84626 547.278994,1721.98602 545.462287,1728.27528 C543.64558,1734.56453 543.925073,1734.70429 542.108366,1740.99355 C541.49788,1743.0915 539.334449,1744.32788 537.217231,1743.78877 C531.347869,1742.2514 531.347869,1742.39116 525.618254,1740.71403 C519.888639,1739.03689 519.888639,1737.35976 514.019278,1735.68262 Z" id="Shape"></path>
                <path d="M809.02458,1784.45929 L797.006363,1784.45929 L784.988146,1784.45929 C783.97578,1784.49904 782.992794,1784.11425 782.276391,1783.39777 C781.559988,1782.6813 781.175238,1781.69821 781.214985,1780.68574 C781.214985,1773.9772 781.214985,1773.9772 781.214985,1766.70961 C781.214985,1759.44203 781.214985,1760.00108 781.214985,1752.73349 L781.214985,1738.75737 C781.214985,1732.04883 781.214985,1732.04883 781.214985,1724.78125 C781.214985,1717.51366 781.214985,1718.07271 781.214985,1710.80513 C781.214985,1703.53754 781.214985,1704.09659 781.214985,1696.829 C781.214985,1689.56142 781.214985,1689.98071 781.214985,1682.85288 C781.214985,1675.72506 781.214985,1676.14434 781.214985,1668.87676 L781.214985,1654.90064 C781.214985,1648.1921 781.214985,1648.1921 781.214985,1640.92452 C781.214985,1633.65693 781.214985,1634.21598 781.214985,1626.9484 C781.214985,1619.68081 781.214985,1620.1001 781.214985,1612.97227 C781.214985,1605.84445 781.214985,1606.26374 781.214985,1598.99615 L781.214985,1585.02003 C781.214985,1578.31149 781.214985,1578.31149 781.214985,1571.04391 C781.287421,1568.83616 783.06012,1567.06328 785.26764,1566.99083 L797.285857,1566.99083 L809.304074,1566.99083 C815.313182,1566.99083 815.313182,1566.99083 821.322291,1566.99083 C823.505685,1567.1403 825.176026,1568.99642 825.095452,1571.18367 C825.095452,1577.89221 825.095452,1577.89221 825.095452,1585.15979 C825.095452,1592.42738 825.095452,1591.86833 825.095452,1599.13591 C825.095452,1606.4035 825.095452,1605.84445 825.095452,1613.11204 C825.095452,1620.37962 825.095452,1619.82057 825.095452,1627.08816 L825.095452,1641.06428 C825.095452,1647.77282 825.095452,1647.77282 825.095452,1655.0404 C825.095452,1662.30798 825.095452,1661.8887 825.095452,1669.01652 L825.095452,1682.99264 L825.095452,1696.96877 C825.095452,1703.6773 825.095452,1703.6773 825.095452,1710.94489 C825.095452,1718.21247 825.095452,1717.65343 825.095452,1724.92101 C825.095452,1732.18859 825.095452,1731.76931 825.095452,1738.89713 C825.095452,1746.02495 825.095452,1745.60567 825.095452,1752.87325 C825.095452,1760.14084 825.095452,1759.58179 825.095452,1766.84937 L825.095452,1780.8255 C825.133397,1781.88737 824.737957,1782.91902 823.999992,1783.68343 C823.262027,1784.44783 822.244985,1784.87925 821.182544,1784.87857 L809.02458,1784.45929 Z" id="Shape"></path>
                <path d="M1038.48868,1758.88299 C1034.16286,1759.97755 1029.77661,1760.81756 1025.35249,1761.39869 C1020.70219,1761.78309 1016.02811,1761.78309 1011.37782,1761.39869 C1006.69225,1761.37865 1002.01699,1760.95783 997.403144,1760.14084 C993.003687,1759.30987 988.697169,1758.04587 984.546447,1756.36728 C980.385944,1754.79963 976.365532,1752.88273 972.52823,1750.63707 C968.721277,1748.33022 965.079101,1745.76175 961.627987,1742.95021 C958.088057,1740.23728 954.770192,1737.24621 951.70597,1734.00549 C948.726826,1730.76033 945.927697,1727.35437 943.321168,1723.80292 C938.123721,1716.4561 933.453784,1708.74991 929.346497,1700.74232 C927.52979,1696.68924 925.852829,1692.49641 924.455362,1688.30357 C922.921341,1684.09087 921.615149,1679.79865 920.542454,1675.44554 C919.254101,1671.22687 918.227339,1666.9327 917.468027,1662.58751 C916.726444,1658.24207 916.259695,1653.85417 916.07056,1649.44995 C915.79951,1645.07496 915.79951,1640.68739 916.07056,1636.3124 C916.167691,1631.63029 916.587931,1626.96048 917.32828,1622.33628 C917.777861,1617.95796 918.524903,1613.61533 919.564227,1609.33848 C920.628833,1605.06964 922.078836,1600.90629 923.896375,1596.89973 C926.092857,1593.17674 928.568833,1589.62591 931.302951,1586.27788 C933.609281,1582.50367 936.128807,1578.86398 938.849273,1575.37651 C941.771674,1572.0588 944.948946,1568.97465 948.352049,1566.15227 C951.743083,1563.22132 955.391242,1560.60185 959.252293,1558.32564 C963.053783,1556.06424 967.025227,1554.10167 971.130763,1552.45567 C975.232634,1550.7609 979.4326,1549.31409 983.707967,1548.12307 C987.993991,1547.16337 992.334031,1546.46329 996.704411,1546.02665 C1001.32832,1545.32139 1006.00202,1544.99419 1010.67908,1545.04832 C1015.09252,1545.09144 1019.49155,1545.55947 1023.81527,1546.44593 C1028.15599,1547.13477 1032.41641,1548.25852 1036.53222,1549.8002 C1040.76079,1551.13682 1044.83611,1552.91704 1048.69019,1555.11113 C1052.55888,1557.28661 1056.25029,1559.76338 1059.73018,1562.51847 C1063.15639,1565.31386 1066.42233,1568.30017 1069.51245,1571.46319 C1075.66499,1577.80503 1080.93008,1584.95125 1085.16408,1592.7069 C1087.47918,1596.45086 1089.5788,1600.32388 1091.45268,1604.30708 C1093.26939,1608.22039 1094.8066,1612.41323 1096.34381,1616.74583 C1097.88103,1621.07842 1098.999,1624.99174 1100.11698,1629.32434 C1101.23495,1633.65693 1102.49267,1637.98953 1103.1914,1642.46189 C1104.07074,1646.79883 1104.67749,1651.18661 1105.00811,1655.59945 C1105.00811,1660.21157 1105.00811,1664.68392 1105.00811,1669.57557 C1105.00811,1674.46721 1105.00811,1678.52029 1104.02988,1683.55169 C1103.5342,1687.97931 1102.7405,1692.36845 1101.65419,1696.68924 C1100.6837,1701.04064 1099.32745,1705.29689 1097.60153,1709.40751 C1096.06201,1713.5803 1094.14415,1717.60354 1091.87192,1721.42698 C1089.5509,1725.25888 1086.93435,1728.90374 1084.0461,1732.32835 C1078.18523,1739.03566 1071.35545,1744.8298 1063.78283,1749.51898 C1059.98465,1751.82635 1056.01325,1753.83562 1051.90436,1755.52872 C1047.77831,1757.28535 1043.52766,1758.73352 1039.18741,1759.86131 L1038.48868,1758.88299 Z M1039.4669,1711.50393 C1043.23958,1709.36921 1046.59988,1706.57656 1049.38892,1703.25802 C1052.21559,1699.91898 1054.48105,1696.14282 1056.09676,1692.07712 C1057.76694,1688.05138 1058.89478,1683.82152 1059.45068,1679.49861 C1060.1239,1675.19916 1060.45102,1670.85261 1060.42891,1666.50082 C1060.33787,1662.15373 1060.01132,1657.81477 1059.45068,1653.50303 C1059.45068,1649.03067 1057.77372,1645.25712 1057.07499,1642.32213 C1055.9102,1637.58139 1054.46358,1632.91439 1052.74284,1628.34601 C1051.29599,1624.33928 1049.51979,1620.45929 1047.43247,1616.74583 C1045.46963,1612.88984 1043.12905,1609.23816 1040.44513,1605.84445 C1037.71657,1602.56725 1034.62201,1599.61305 1031.22185,1597.0395 C1027.79099,1594.4834 1023.96815,1592.50099 1019.90236,1591.16952 C1015.86484,1589.7404 1011.6079,1589.03084 1007.32516,1589.07311 C1003.02255,1589.20743 998.752228,1589.86447 994.60821,1591.02976 C990.472412,1592.06733 986.482133,1593.61666 982.72974,1595.64188 C978.964995,1597.6746 975.564648,1600.31959 972.667977,1603.46851 C969.864919,1606.7212 967.600344,1610.40152 965.960135,1614.36989 C964.114601,1618.22837 962.79841,1622.31839 962.047227,1626.52911 C961.632344,1630.75838 961.632344,1635.01811 962.047227,1639.24738 C961.753525,1643.52836 961.753525,1647.82444 962.047227,1652.10542 C962.885707,1657.83562 964.422921,1662.72727 965.261401,1666.08154 C966.099881,1669.43581 967.078108,1672.65031 968.615322,1676.84315 C970.152536,1681.03599 971.969243,1684.66978 974.065444,1688.58309 C976.148481,1692.3881 978.581258,1695.99085 981.332273,1699.34471 C983.960663,1702.78885 987.012551,1705.88801 990.415809,1708.56895 C993.73217,1711.39195 997.515436,1713.61485 1001.59555,1715.13772 C1005.64599,1716.72744 1009.96137,1717.5337 1014.3125,1717.51366 C1018.66513,1717.55956 1022.99969,1716.94701 1027.16919,1715.69677 C1031.41266,1715.04183 1035.5489,1713.81963 1039.4669,1712.06298 L1039.4669,1711.50393 Z" id="Shape"></path>
                <path d="M1266.69505,1660.91037 C1261.66417,1664.26464 1261.52442,1663.98512 1256.63329,1667.47915 L1246.71127,1674.18769 C1245.82487,1674.7552 1244.74725,1674.94167 1243.72173,1674.70499 C1242.6962,1674.4683 1241.80925,1673.82842 1241.26115,1672.92984 C1237.48799,1667.33939 1237.34824,1667.47915 1233.57508,1661.8887 C1229.80192,1656.29825 1229.94167,1656.15849 1226.16851,1650.56804 C1222.39535,1644.97759 1222.11585,1645.25712 1218.48244,1639.66667 C1214.84902,1634.07622 1214.98877,1633.7967 1211.21561,1628.20625 C1207.44245,1622.6158 1207.3027,1622.75556 1203.52954,1617.16511 L1196.12296,1605.98421 C1192.3498,1600.39376 1192.07031,1600.53353 1188.29715,1594.94308 L1180.89057,1583.76218 C1177.11741,1578.17173 1177.39691,1578.03197 1173.62374,1572.44152 C1169.85058,1566.85107 1169.71084,1566.99083 1165.93768,1561.40038 L1158.39135,1550.21949 C1154.61819,1544.62904 1154.89769,1544.48928 1151.12452,1538.89883 C1147.35136,1533.30838 1147.07187,1533.44814 1143.29871,1527.99745 C1139.52555,1522.54677 1139.80504,1522.12748 1136.03188,1516.6768 L1128.6253,1505.4959 C1127.99774,1504.67959 1127.74592,1503.63534 1127.93244,1502.62268 C1128.11897,1501.61002 1128.72631,1500.72405 1129.60353,1500.18497 L1139.52555,1493.47643 L1149.44756,1486.76789 L1159.36958,1479.91959 C1161.48021,1478.66668 1164.10654,1478.66668 1166.21717,1479.91959 L1178.23539,1486.20885 C1184.38424,1489.2836 1184.24449,1489.42336 1190.2536,1492.4981 L1202.41157,1498.78736 C1208.42068,1501.86211 1208.56042,1501.58258 1214.56953,1504.65733 L1226.72749,1510.94659 L1238.74571,1517.3756 L1250.90367,1523.38533 L1262.92189,1529.67459 L1275.07986,1535.68432 C1281.22871,1538.89883 1281.08896,1539.03859 1287.09807,1542.11334 L1287.09807,1542.11334 C1287.09807,1542.11334 1287.09807,1542.11334 1287.09807,1541.27477 C1283.18516,1535.4048 1283.18516,1536.1036 1278.71327,1529.53483 C1275.77859,1525.06247 1275.91834,1524.50342 1272.42467,1519.47202 L1265.01809,1508.57064 C1261.38468,1503.11996 1261.10518,1503.25972 1257.47177,1497.80903 C1253.83836,1492.35834 1253.9781,1492.21858 1250.34469,1486.76789 L1242.93811,1475.86652 C1239.3047,1470.41583 1239.44444,1470.27607 1235.67128,1464.82538 C1231.89812,1459.3747 1231.75838,1459.65422 1228.12496,1454.20353 C1224.49155,1448.75284 1224.63129,1448.61308 1220.99788,1443.16239 C1219.71742,1441.37932 1220.08916,1438.90082 1221.83636,1437.57195 L1231.89812,1430.86341 L1241.82014,1424.15487 L1251.8819,1417.58609 C1253.70068,1416.3354 1256.18577,1416.77034 1257.47177,1418.56442 L1265.01809,1429.74532 C1268.65151,1435.33577 1268.51176,1435.47553 1272.28492,1440.92622 C1276.05808,1446.3769 1276.05808,1446.51666 1279.83124,1452.10711 L1287.37757,1463.28801 L1295.06363,1474.46891 L1302.60996,1485.51004 C1306.38312,1491.10049 1306.24337,1491.24025 1310.01653,1496.8307 L1317.56285,1507.87184 L1325.10918,1519.05274 C1328.88234,1524.64318 1328.74259,1524.78295 1332.51575,1530.23363 C1336.28891,1535.68432 1336.14917,1535.96384 1339.92233,1541.55429 C1343.69549,1547.14474 1343.97498,1547.00498 1347.6084,1552.59543 C1351.24181,1558.18588 1351.10207,1558.32564 1354.87523,1563.91609 C1358.64839,1569.50654 1358.78813,1569.36677 1362.5613,1574.95722 C1366.33446,1580.54767 1366.19471,1580.54767 1369.96787,1586.27788 C1370.59544,1587.09419 1370.84726,1588.13844 1370.66073,1589.1511 C1370.47421,1590.16376 1369.86686,1591.04973 1368.98964,1591.58881 L1358.92788,1598.15759 C1353.897,1601.51185 1354.17649,1601.79138 1349.14561,1605.14565 C1344.11473,1608.49992 1344.11473,1608.22039 1339.08385,1611.57466 C1337.02514,1612.83385 1334.43471,1612.83385 1332.37601,1611.57466 L1320.21804,1605.42517 L1308.06008,1599.27567 C1302.05097,1596.20093 1302.05097,1596.06117 1296.04186,1592.84666 L1284.02364,1586.5574 L1271.72593,1580.54767 L1259.56797,1574.39818 C1253.55886,1571.32343 1253.69861,1571.04391 1247.6895,1567.96916 L1235.53154,1561.67991 L1223.51332,1555.53041 C1217.36446,1552.45567 1217.36446,1552.73519 1211.21561,1549.52068 L1211.21561,1549.52068 L1218.62218,1560.42206 L1226.02876,1571.32343 L1233.43534,1582.22481 L1240.84191,1593.12618 C1244.47533,1598.57687 1244.47533,1598.43711 1248.24849,1603.88779 C1252.02165,1609.33848 1251.74215,1609.47824 1255.51532,1614.92893 C1259.28848,1620.37962 1259.00898,1620.51938 1262.6424,1625.97007 C1266.27581,1631.42075 1266.41556,1631.28099 1270.04897,1636.73168 L1277.45555,1647.63306 C1278.6778,1649.48805 1278.17919,1651.98135 1276.33758,1653.2235 L1266.55531,1660.0718 L1266.69505,1660.91037 Z" id="Shape"></path>
                <path d="M203.641837,595.231087 C201.797288,599.184045 199.696619,603.012329 197.353235,606.691507 C194.889145,610.28203 192.229962,613.734661 189.387672,617.033837 C186.625712,620.401248 183.637528,623.576523 180.443883,626.5376 C177.153087,629.390035 173.700248,632.04993 170.102626,634.503989 C166.612005,637.134175 162.972542,639.560736 159.202383,641.771572 C155.442345,644.015929 151.57106,646.068389 147.603406,647.921066 C146.62152,648.340576 145.510865,648.340576 144.528979,647.921066 C143.688277,647.535105 143.034946,646.831445 142.712272,645.964409 C140.196831,640.653483 140.057084,640.793244 137.541643,635.482318 C135.026203,630.171391 135.165949,630.03163 132.790255,624.860465 C130.414561,619.6893 130.274814,619.549539 127.89912,614.238613 C127.39947,613.22537 127.39947,612.037347 127.89912,611.024105 C128.371455,610.130599 129.101908,609.40007 129.995321,608.927686 C133.628735,607.11079 136.982656,604.874611 140.336577,602.778193 C150.781788,596.373804 159.059348,586.975363 164.093518,575.804278 C166.143041,572.042647 167.604049,567.989108 168.425666,563.784813 C169.541956,559.666291 169.541956,555.324825 168.425666,551.206303 C165.452985,542.89067 156.458071,538.392746 148.022646,541.003735 C144.133694,542.192583 140.455493,543.984713 137.122403,546.314661 C134.187722,548.411079 131.113295,550.926781 127.619627,553.861767 L118.536091,561.828156 C115.18217,564.62338 111.967996,567.837888 108.474328,570.772874 C104.98066,573.707859 101.486992,576.223561 97.8535779,578.879025 C94.2201635,581.534488 90.4470023,584.05019 86.5340945,586.286369 C82.6118478,588.367241 78.4923221,590.052676 74.2363841,591.317773 C69.9303896,592.672312 65.468915,593.470764 60.9604467,593.693714 C56.2737649,593.909008 51.5786251,593.533357 46.9857758,592.575624 C42.1440549,591.460276 37.452678,589.771205 33.0111049,587.54422 C29.330145,585.668797 25.8227387,583.470594 22.5301017,580.975443 C19.0323544,578.312723 15.8447742,575.265455 13.0273255,571.890964 C7.6480293,564.912 3.83497451,556.856086 1.84758875,548.271318 C0.961217423,543.947143 0.493235553,539.547656 0.450121655,535.133763 C0.451129176,530.741238 0.731186714,526.353215 1.28860191,521.996209 C1.98127445,517.637508 3.00913319,513.338743 4.36302951,509.138177 C5.69056033,504.969731 7.32542369,500.905506 9.25416433,496.978951 C11.317978,492.661594 13.7002532,488.503858 16.3812465,484.540203 C19.1559605,480.663033 22.2404979,477.017292 25.6045293,473.638828 C32.2400906,466.777573 40.1103694,461.229873 48.802483,457.286765 C53.0293202,455.104798 57.3673959,453.145464 61.7989269,451.416794 C62.8277715,450.98974 63.9842567,450.98974 65.0131013,451.416794 C65.9338522,451.875955 66.6367283,452.679325 66.9695552,453.652973 C68.9260091,459.243422 68.7862624,459.243422 70.7427163,464.69411 C72.6991703,470.144797 72.4196768,470.284558 74.3761308,475.875007 C76.3325847,481.465456 76.4723314,481.185933 78.4287853,486.776382 C78.8482516,487.75837 78.8482516,488.869141 78.4287853,489.851129 C78.0117101,490.803592 77.1921378,491.520792 76.192838,491.807786 C72.2841597,493.10679 68.5340008,494.841419 65.0131013,496.978951 C61.4669898,499.146835 58.3033788,501.885768 55.6500717,505.085102 C53.0797275,508.325377 50.8768801,511.840924 49.0819764,515.567193 C47.3444304,519.030544 46.0306516,522.690736 45.1690686,526.468568 C44.3970057,530.202622 44.3970057,534.055173 45.1690686,537.789227 C45.9109548,541.617524 48.4637707,544.847953 52.0166573,546.454422 C56.5137792,548.655511 61.8446812,548.282309 65.9913282,545.476093 C70.3244781,543.111216 74.3991769,540.300787 78.1492919,537.09042 C81.5032129,534.295196 85.4161208,531.220449 89.4687753,527.586658 C93.5214299,523.952866 95.4778838,521.996209 98.8318049,519.200985 C102.185726,516.40576 105.260153,513.750297 108.614074,511.234595 C112.083587,508.772479 115.674975,506.486813 119.374571,504.386295 C122.970991,502.145421 126.758981,500.227844 130.694055,498.656086 C134.61817,497.115559 138.693159,495.991307 142.852018,495.301816 C147.025563,494.739424 151.255677,494.739424 155.429222,495.301816 C159.648288,495.645084 163.818137,496.441654 167.866679,497.677757 C171.640635,498.814136 175.329779,500.215223 178.906669,501.870594 C183.160721,504.002202 187.147882,506.62931 190.785139,509.697222 C194.21606,512.54405 197.352774,515.727912 200.148169,519.200985 C202.869903,522.767402 205.21172,526.608381 207.135504,530.661404 C208.949303,534.75204 210.353622,539.012248 211.327906,543.379675 C212.379056,547.963246 212.89491,552.65331 212.865119,557.355797 C212.823147,562.040788 212.402537,566.714719 211.607399,571.331919 C210.750725,575.727785 209.630733,580.068203 208.253478,584.329712 C206.743681,588.51601 205.01782,592.621186 203.08285,596.628699 L203.641837,595.231087 Z" id="Shape"></path>
                <path d="M283.856448,462.178408 C279.803793,466.650767 279.664046,466.511005 275.611392,470.843603 C271.558737,475.176201 271.558737,475.315962 267.506083,479.788321 C266.770108,480.53955 265.76276,480.962886 264.711149,480.962886 C263.659537,480.962886 262.652189,480.53955 261.916214,479.788321 C256.885333,475.315962 257.02508,475.03644 252.133945,470.564081 C247.24281,466.091722 246.963316,466.231483 242.072182,461.619363 C237.181047,457.007243 237.320794,456.867481 232.289912,452.395123 L222.367896,443.310643 L212.445879,434.226164 L202.66361,425.001924 C197.772475,420.389804 197.912222,420.250042 192.88134,415.777683 L182.959324,406.553443 C178.068189,402.081084 177.928442,402.220845 173.037307,397.608725 L162.696051,388.524246 L152.774035,379.439767 C147.8829,374.967408 148.022646,374.827647 143.131512,370.215527 C138.240377,365.603406 138.10063,365.743168 133.069749,361.270809 L123.147732,352.046568 L113.784703,342.403044 C113.033552,341.666993 112.61026,340.659541 112.61026,339.60782 C112.61026,338.556099 113.033552,337.548647 113.784703,336.812595 L122.728492,327.02931 C127.200387,322.137668 127.06064,322.137668 131.532535,317.385786 C136.004429,312.633905 136.283923,312.773666 140.755818,307.882023 C145.227712,302.990381 145.087966,302.85062 149.55986,298.098738 L158.50365,288.455214 C161.578077,285.240706 164.792252,282.165959 168.006426,279.370735 C171.202991,276.864888 174.564502,274.576955 178.068189,272.522435 C181.716278,270.086826 185.547473,267.937396 189.527419,266.093419 C193.417896,264.085551 197.488449,262.447802 201.685383,261.201777 C205.930138,260.062676 210.289874,259.406304 214.681827,259.24512 C219.003848,258.826164 223.35625,258.826164 227.678271,259.24512 C232.029046,259.885509 236.294548,261.010594 240.395221,262.599389 C244.478491,264.152726 248.370228,266.169136 251.994198,268.609121 C256.639248,271.485452 260.992087,274.808932 264.990642,278.532168 C267.579549,280.837571 269.964137,283.362691 272.117724,286.079273 C274.927495,289.639417 277.362653,293.479872 279.384553,297.539693 C281.460734,301.57847 283.055453,305.847131 284.135941,310.257964 C285.252955,314.607477 285.954834,319.053168 286.232142,323.53528 C286.74787,328.179711 286.74787,332.86697 286.232142,337.511402 C285.542857,342.02105 284.467512,346.46315 283.017967,350.788717 C281.58001,355.06907 279.804298,359.228405 277.707592,363.227466 C275.618419,367.218543 273.236193,371.049186 270.58051,374.687885 C267.880103,378.328124 264.938834,381.783307 261.776468,385.030216 C257.723813,389.502575 258.003307,389.642336 253.810905,394.114695 L245.705596,402.77989 C245.330021,403.147916 245.118375,403.651642 245.118375,404.177502 C245.118375,404.703363 245.330021,405.207089 245.705596,405.575115 L255.068626,414.24031 L264.431655,422.765744 L273.654938,431.43094 L283.017967,439.956374 C287.629609,444.149211 287.489862,444.428733 292.101504,448.761331 C292.883598,449.451145 293.33164,450.443774 293.33164,451.486675 C293.33164,452.529575 292.883598,453.522205 292.101504,454.212018 L283.996194,463.016975 L283.856448,462.178408 Z M221.808909,364.345555 L229.914218,355.68036 C232.942425,352.435529 235.612964,348.874441 237.87978,345.058507 C240.219959,341.328458 241.876265,337.210926 242.770915,332.899281 C243.616211,328.489902 243.179726,323.930587 241.513195,319.761727 C239.793545,315.875307 237.269126,312.397916 234.106619,309.559158 C230.975649,306.422214 227.143658,304.074876 222.926883,302.710858 C218.787367,301.412042 214.349448,301.412042 210.209932,302.710858 C206.186544,304.200647 202.451399,306.375767 199.169942,309.139874 C195.802913,311.801686 192.670419,314.747472 189.806912,317.944831 C185.754258,322.277429 185.474764,321.997906 181.42211,326.470265 C177.369455,330.942624 177.509202,330.942624 173.456548,335.414983 C172.764053,336.164667 172.764053,337.320762 173.456548,338.070446 L182.67983,346.45612 L192.322353,355.261076 C197.073741,359.593674 196.933995,359.733435 201.545636,364.066033 C206.157277,368.398631 206.157277,368.538392 210.768919,372.87099 C211.674486,373.570204 212.937779,373.570204 213.843346,372.87099 L221.808909,364.345555 Z" id="Shape"></path>
                <path d="M442.189469,322.696712 C437.158588,326.050982 437.018841,325.771459 431.987959,328.985967 L421.926196,335.554745 C421.133133,336.177743 420.109576,336.427623 419.118691,336.240139 C418.127807,336.052655 417.266262,335.446097 416.755568,334.576416 C412.982407,328.985967 412.702913,329.125729 409.069499,323.53528 C405.436085,317.944831 405.575831,317.80507 401.80267,312.214621 L394.116601,300.474679 C390.34344,294.88423 390.063947,295.023991 386.430532,289.433543 C382.797118,283.843094 382.936864,283.703333 379.30345,277.973123 C375.670036,272.242913 375.390542,272.522435 371.757128,266.931987 L364.210805,255.751089 C360.577391,250.020879 360.717138,249.881118 357.083723,244.290669 L349.677148,233.109772 C345.903987,227.519323 345.76424,227.519323 342.130825,221.928875 C338.497411,216.338426 338.497411,216.338426 334.72425,210.608216 C330.951089,204.878006 330.811342,205.157528 327.177928,199.56708 C323.544513,193.976631 323.68426,193.83687 319.911099,188.246421 L312.504523,176.925762 C308.871109,171.335314 308.731362,171.475075 304.958201,165.884626 C303.721539,163.986205 304.216623,161.448636 306.076174,160.154416 L316.137937,153.585639 L326.199701,147.016862 C331.230582,143.802354 331.090835,143.662593 336.121717,140.308323 C338.018492,139.231594 340.42714,139.849261 341.571839,141.705936 C345.205253,147.296384 345.484746,147.156623 349.257908,152.747072 L356.664483,163.927969 C360.437644,169.518418 360.158151,169.658179 363.931312,175.388389 L371.198141,186.569286 C374.971302,192.159735 374.831555,192.299496 378.604716,197.889945 C382.377878,203.480394 382.377878,203.480394 386.151039,209.070843 C389.9242,214.661291 389.644706,214.661291 393.417868,220.391501 L400.824443,231.572399 L408.231019,242.753296 C412.00418,248.343745 412.283673,248.203983 415.917088,253.794432 C419.550502,259.384881 419.271009,259.664403 423.04417,265.254852 C426.817331,270.845301 426.817331,270.845301 430.590492,276.435749 C434.363653,282.026198 434.5034,281.886437 438.136815,287.476886 C441.770229,293.067334 441.770229,293.207096 445.403643,298.797544 C449.037058,304.387993 449.176805,304.387993 452.810219,310.118203 C454.060777,311.937173 453.625887,314.422517 451.831992,315.708652 L441.770229,322.277429 L442.189469,322.696712 Z" id="Shape"></path>
                <path d="M544.48406,266.093419 C538.754445,268.050076 538.754445,267.770554 533.02483,269.727211 L521.705347,273.780286 C519.584585,274.418633 517.344196,273.236083 516.674465,271.124823 C514.578264,264.695807 514.438518,264.835568 512.20257,258.406552 C509.966623,251.977536 510.246116,251.977536 508.149916,245.688282 C506.053715,239.399027 505.634475,239.399027 503.398528,232.970011 C501.16258,226.540995 501.58182,226.540995 499.48562,220.111979 L495.013725,207.533469 C492.917524,201.104453 492.777778,201.104453 490.681577,194.815198 C488.585377,188.525944 488.305883,188.525944 486.069936,182.096928 L481.877534,169.378657 C479.641587,162.949641 480.060827,162.809879 477.82488,156.520625 C475.588933,150.23137 475.449186,150.23137 473.213239,143.942115 L468.881091,131.084083 C466.78489,124.794828 467.064383,124.655067 464.828436,118.365812 C462.592489,112.076557 462.312995,112.076557 460.216795,105.787303 C458.120594,99.4980479 458.260341,99.2185254 456.16414,92.9292706 L451.831992,80.2109998 C451.477869,79.2481156 451.531027,78.1825349 451.979222,77.2596837 C452.427418,76.3368325 453.232011,75.6362724 454.207686,75.3193572 L465.52717,71.5458043 L476.846653,67.6324902 L488.166136,63.5794149 C490.487173,62.7495801 493.077387,63.2892641 494.873978,64.9770271 L504.795995,74.2012675 C509.826876,78.6736264 509.826876,78.8133877 514.857758,83.4255078 L524.779774,92.509987 C529.810656,97.1221072 530.090149,96.982346 535.121031,101.594466 L545.043047,110.678945 L555.10481,120.042947 C559.995945,124.515306 560.135692,124.375545 565.166573,128.987665 L575.228336,138.211905 C580.259218,142.824025 580.398964,142.684264 585.290099,147.296384 C590.181234,151.908504 590.181234,151.908504 595.212116,156.520625 L595.212116,156.520625 C595.212116,156.520625 595.212116,156.520625 595.212116,155.682057 C592.976168,149.11328 592.696675,149.672325 590.181234,141.705936 C588.504274,136.674532 588.64402,136.115487 586.687566,130.245516 C584.731112,124.375545 584.591366,124.096022 582.355418,117.946529 C580.119471,111.797035 579.979724,111.797035 577.883524,105.50778 C575.787323,99.2185254 576.066816,99.2185254 573.830869,93.0690319 L569.638468,80.6302835 C567.542267,74.3410287 567.682014,74.3410287 565.585813,68.1915351 C563.489613,62.0420415 563.070372,62.0420415 560.974172,55.7527867 C558.877971,49.4635319 559.157465,49.4635319 556.921517,43.3140384 C556.166827,41.2306436 557.225013,38.9272926 559.297211,38.1428733 L570.616695,34.3693204 L582.075925,30.5957676 L593.395408,26.6824535 C594.414511,26.3266285 595.533442,26.3921052 596.504098,26.8643651 C597.474754,27.3366249 598.216921,28.1766416 598.566037,29.1981554 C600.801984,35.4874102 600.662237,35.4874102 602.898185,41.9164262 C605.134132,48.3454422 604.854638,48.3454422 607.090586,54.634697 C609.326533,60.9239518 609.186786,61.063713 611.422734,67.3529678 C613.658681,73.6422226 613.518934,73.7819838 615.754882,80.0712386 C617.990829,86.3604934 617.990829,86.3604934 620.226776,92.7895094 C622.462724,99.2185254 622.462724,99.2185254 624.558924,105.50778 C626.655125,111.797035 626.655125,111.936796 628.751326,118.226051 C630.847526,124.515306 631.12702,124.655067 633.22322,130.944322 L637.555368,143.662593 C639.791316,150.091609 639.651569,150.091609 641.74777,156.520625 C643.84397,162.949641 643.84397,162.809879 645.940171,169.238895 C648.036372,175.667912 648.455612,175.52815 650.551812,181.817405 C652.648013,188.10666 652.36852,188.386182 654.604467,194.675437 C656.840414,200.964692 656.980161,200.964692 659.076362,207.393708 C661.172562,213.822724 661.172562,213.822724 663.268763,220.111979 C663.626779,221.093967 663.577115,222.178384 663.130842,223.123531 C662.68457,224.068677 661.878779,224.795997 660.893069,225.143383 C655.3032,227.10004 655.163454,226.960278 649.573585,228.777174 C643.983717,230.59407 643.983717,231.013354 638.393849,232.970011 C632.80398,234.926668 632.524487,234.647145 626.934619,236.603802 C624.634166,237.408141 622.079619,236.929114 620.226776,235.345951 L610.165013,226.261472 L600.10325,217.176993 L590.181234,207.812992 L581.936178,199.287557 C576.905297,194.815198 576.76555,194.95496 571.734668,190.342839 L561.672905,181.25836 L551.750889,171.894359 L541.828873,162.809879 L531.76711,153.585639 C526.736228,149.11328 526.596481,149.253041 521.5656,144.640921 L521.5656,144.640921 C521.5656,144.640921 521.5656,144.640921 521.5656,144.640921 L525.897748,157.07967 L530.090149,169.518418 L534.422297,181.957166 C536.518498,188.246421 536.658244,188.246421 538.754445,194.395915 C540.850646,200.545408 540.990392,200.545408 543.086593,206.834663 C545.182794,213.123918 545.043047,213.123918 547.278994,219.273411 C549.514942,225.422905 549.095702,225.562666 551.331649,231.71216 L553.986836,244.570192 C556.222784,250.859447 556.222784,250.719685 558.318984,257.00894 C558.670907,258.009209 558.601885,259.109487 558.127716,260.057924 C557.653547,261.00636 556.81483,261.72175 555.803544,262.040344 L544.623807,266.093419 L544.48406,266.093419 Z" id="Shape"></path>
                <path d="M795.88839,217.316754 C791.514145,217.597071 787.126444,217.597071 782.752199,217.316754 C778.422098,216.855131 774.127193,216.108113 769.895502,215.080575 C761.391039,213.253014 753.199206,210.192529 745.579575,205.996096 C741.642312,204.121351 737.816238,202.021459 734.120344,199.706841 C730.48693,197.470661 726.853516,194.95496 723.359848,192.299496 C722.583672,191.635672 722.136795,190.665423 722.136795,189.644033 C722.136795,188.622644 722.583672,187.652395 723.359848,186.98857 C726.853516,182.37645 726.713769,182.236689 730.207437,177.624569 L737.474265,168.540089 C741.10768,163.927969 740.967933,163.788208 744.601348,159.315849 C745.228626,158.397929 746.285654,157.86936 747.396282,157.918237 C748.390303,157.915474 749.362865,158.207273 750.191216,158.756804 C753.684884,161.132745 757.178551,163.089402 760.532472,165.046059 C764.090395,166.979124 767.779434,168.660379 771.572462,170.077463 C775.376665,171.448297 779.309505,172.43161 783.311186,173.012448 C787.309086,173.374357 791.331503,173.374357 795.329403,173.012448 C799.58691,173.008679 803.822061,172.396871 807.906607,171.195553 C812.104158,170.257538 815.939276,168.121301 818.946597,165.046059 C821.952983,161.844468 823.518346,157.5519 823.278745,153.166355 C823.105653,149.068057 821.411628,145.181361 818.527357,142.26498 C815.73352,139.367429 812.474284,136.958179 808.884834,135.137158 C805.27094,133.22006 801.536523,131.539398 797.705097,130.105755 C794.211429,128.708142 790.578015,127.170769 786.52536,125.773157 C782.472706,124.375545 778.140558,122.69841 773.948156,121.021275 C769.755755,119.344141 765.842847,117.247723 761.790193,115.291065 C757.741914,113.352737 753.821082,111.15871 750.051469,108.722288 C746.370044,106.181997 742.952461,103.279091 739.849959,100.057093 C736.651155,96.942236 733.878721,93.4175898 731.604904,89.5750014 C729.386344,85.652343 727.6502,81.4757805 726.434275,77.136253 C725.363243,72.5533681 724.800856,67.866328 724.757315,63.1601313 C724.649448,59.0374568 724.977343,54.9149198 725.735542,50.8611441 C726.4162,46.5329001 727.63686,42.3070981 729.368956,38.2826345 C733.019976,30.2139298 738.412975,23.0543387 745.160334,17.3184519 C748.57154,14.5780902 752.219274,12.1460154 756.060578,10.0508686 C759.935313,7.99707293 763.951573,6.22226195 768.078795,4.73994228 C776.426817,1.97422624 785.140045,0.466916728 793.931936,0.267583319 C798.583733,-0.078494906 803.25481,-0.078494906 807.906607,0.267583319 C812.651979,0.845840639 817.331389,1.87541782 821.881278,3.34233011 C826.46952,4.67442083 830.916107,6.45323992 835.157215,8.65325638 C839.356281,10.9004234 843.374443,13.4704447 847.175432,16.3401234 C851.061858,19.0662145 854.794165,22.0057112 858.355169,25.1450801 C859.188031,25.8890655 859.648585,26.9638022 859.612889,28.0800656 C859.625226,29.0977972 859.278906,30.0873857 858.634662,30.87529 L850.529353,39.2609631 C846.616445,43.5935608 846.336952,43.3140384 842.424044,47.6466361 C838.511136,51.9792339 838.511136,51.9792339 834.598228,56.3118316 C833.763083,57.0075427 832.743248,57.4446603 831.663547,57.5696826 C830.665453,57.5628818 829.710715,57.1608453 829.00836,56.4515928 C826.046572,53.5704372 822.764404,51.0382165 819.22609,48.9044871 C815.661529,46.7964209 811.797831,45.2413563 807.76686,44.2923669 C803.672593,43.4924379 799.493979,43.2107044 795.329403,43.4537996 C791.501109,43.4056367 787.686722,43.9236936 784.00992,44.991173 C780.269345,45.9404218 776.785415,47.7064327 773.80841,50.162338 C770.815705,52.6245818 769.15855,56.3535689 769.336515,60.2251457 C769.63986,65.2183766 772.419512,69.729223 776.743091,72.2446104 C780.810221,74.9607361 785.169737,77.2110428 789.739535,78.9531489 C793.792189,80.7700447 798.264084,82.7267017 803.714206,84.6833588 L815.592676,89.0159565 C819.505584,90.6930912 823.418491,92.2304646 827.191653,94.1871216 C830.990582,96.0156973 834.67712,98.0691719 838.231643,100.336615 C841.84482,102.565152 845.300096,105.040134 848.572899,107.74396 C851.706971,110.577989 854.604678,113.662965 857.237195,116.9682 C859.651062,120.459277 861.666645,124.209587 863.246304,128.149097 C864.824095,132.023712 865.994941,136.051841 866.739971,140.168562 C867.582586,144.027762 868.05058,147.959324 868.137438,151.908504 C868.236698,156.60652 867.767469,161.299299 866.739971,165.884626 C865.919352,170.275139 864.558103,174.547087 862.687317,178.602897 C860.82689,182.689831 858.480872,186.5377 855.699981,190.063317 C852.993937,193.611051 849.900353,196.845588 846.476698,199.706841 C843.008646,202.585838 839.263755,205.113902 835.296962,207.253947 C831.294436,209.265633 827.134896,210.948318 822.859505,212.285351 C818.611016,213.636325 814.26649,214.664169 809.863061,215.360097 C805.241641,216.087559 800.566078,216.414882 795.88839,216.338426 L795.88839,217.316754 Z" id="Shape"></path>
                <path d="M975.462911,233.808578 L963.863934,230.59407 C961.680037,229.980597 960.339123,227.786145 960.789507,225.562666 C962.466467,219.13365 962.74596,219.13365 964.283174,212.564873 C965.820388,205.996096 965.820388,206.135857 967.497349,199.56708 C969.174309,192.998302 969.453802,193.138064 971.130763,186.709048 C972.807724,180.280032 972.52823,180.14027 974.205191,173.571493 C975.882151,167.002716 976.161645,167.142477 977.838605,160.5737 C979.515566,154.004923 979.236072,154.144684 980.913033,147.575907 C982.589993,141.00713 982.72974,141.146891 984.4067,134.578114 L987.760621,121.58032 C989.297835,115.151304 989.297835,115.151304 990.974796,108.582527 L994.328717,95.5847338 L997.682638,82.5869405 C999.359598,76.1579245 999.639092,76.1579245 1001.31605,69.5891473 C1001.49448,68.4424285 1000.76612,67.3497744 999.639092,67.0734454 L988.319608,64.4179822 C982.589993,63.0203701 982.72974,62.7408476 977.000125,61.3432354 L965.680641,58.2684887 C960.090773,56.8708765 959.951026,57.1503989 954.361158,55.7527867 C952.243846,55.081004 951.017966,52.8741911 951.566224,50.7213829 C953.103438,44.991173 952.823944,45.1309342 954.361158,38.9814406 C955.898372,32.831947 956.038118,33.6705143 957.435586,28.2198269 C958.833053,22.7691394 958.553559,22.6293781 960.090773,16.8991682 C960.701259,14.8012156 962.86469,13.5648412 964.981908,14.1039439 L977.419365,17.4582131 L989.856822,20.5329599 L1002.43403,23.7474679 L1014.87148,26.8222147 L1027.30894,30.0367227 L1039.7464,33.2512307 L1052.18385,36.3259775 C1058.47246,37.8633509 1058.33271,38.1428733 1064.62131,39.6802467 C1070.90991,41.2176201 1070.90991,41.0778589 1077.05877,42.7549935 L1089.49623,45.8297403 L1101.93368,49.1840095 C1104.05468,49.7934229 1105.37865,51.8999654 1105.00811,54.0756521 L1101.93368,65.3963108 C1100.53622,70.9867595 1100.67596,70.9867595 1099.13875,76.7169694 C1097.60153,82.4471793 1097.46179,82.3074181 1096.06432,87.8978668 C1095.80465,88.8918001 1095.15102,89.7368941 1094.25434,90.2380329 C1093.35766,90.7391717 1092.29544,90.8530336 1091.31293,90.5533299 L1079.99345,87.8978668 C1074.26383,86.5002546 1074.40358,86.2207322 1068.67397,84.6833588 L1057.35448,81.8881344 L1046.035,78.9531489 C1044.92962,78.7619826 1043.85371,79.4195527 1043.51956,80.4905223 C1041.8426,86.9195383 1042.12209,87.0592995 1040.44513,93.6280767 C1038.76817,100.196854 1038.62842,100.057093 1036.95146,106.486109 C1035.2745,112.915125 1035.41425,113.054886 1033.87704,119.623663 C1032.33982,126.19244 1031.78083,126.052679 1030.24362,132.481695 C1028.70641,138.910711 1028.56666,139.050472 1026.8897,145.479488 L1023.53578,158.477282 C1021.85882,165.046059 1022.13831,165.046059 1020.46135,171.614836 C1018.78439,178.183613 1018.5049,178.043852 1016.82794,184.472868 L1013.47402,197.470661 C1011.79706,204.039439 1011.65731,204.039439 1010.12009,210.468455 C1008.58288,216.897471 1008.72263,217.037232 1007.04567,223.606009 L1003.69175,236.603802 C1003.40048,237.608069 1002.71944,238.453983 1001.80056,238.95286 C1000.88167,239.451736 999.801364,239.562076 998.800611,239.259266 C992.93125,237.861653 992.93125,238.141176 987.061888,236.603802 L975.462911,233.668817 L975.462911,233.808578 Z" id="Shape"></path>
                <path d="M1165.0992,313.053188 L1153.36047,305.925366 L1141.62175,299.077067 L1129.88302,292.228767 L1118.1443,285.240706 L1106.40558,278.252645 C1105.51613,277.731619 1104.87854,276.869347 1104.64098,275.8662 C1104.40342,274.863053 1104.58656,273.806378 1105.14786,272.941719 L1111.8557,261.341538 L1118.56354,249.741357 L1125.41113,238.001415 C1128.76505,232.271205 1129.04454,232.410966 1132.39847,226.680756 L1139.24605,214.940814 C1142.59998,209.210604 1142.73972,209.210604 1146.09364,203.340633 C1149.44756,197.470661 1149.30782,197.470661 1152.80148,191.740452 L1159.36958,180.000509 C1162.86325,174.270299 1163.14274,174.410061 1166.49666,168.679851 C1169.85058,162.949641 1169.71084,162.670118 1173.2045,156.939908 L1179.91235,145.339727 L1186.75994,133.739546 C1190.11386,127.869575 1190.11386,127.869575 1193.60752,122.139365 C1197.10119,116.409155 1196.96144,116.269394 1200.45511,110.539184 C1203.94878,104.808974 1203.80903,104.808974 1207.3027,98.939003 C1208.39392,97.1006214 1210.7584,96.4783255 1212.61308,97.5413908 L1224.77104,104.808974 C1230.6404,108.303005 1230.36091,108.442766 1236.64951,112.216319 L1247.54975,118.505573 L1259.00898,125.214112 L1270.46821,131.92265 L1281.92744,138.631189 L1293.38667,145.339727 L1304.8459,152.048266 L1316.16539,158.896565 C1317.10195,159.368706 1317.79975,160.209404 1318.09138,161.216962 C1318.38301,162.224519 1318.24215,163.308012 1317.7026,164.207492 L1311.83324,174.270299 C1308.89856,179.301703 1308.89856,179.161942 1305.82413,184.193346 C1302.7497,189.22475 1303.0292,189.364511 1300.09452,194.256153 C1299.54641,195.154741 1298.65947,195.794618 1297.63394,196.031302 C1296.60842,196.267987 1295.53079,196.081519 1294.64439,195.514004 L1283.6044,188.945227 C1278.01454,185.730719 1277.87479,186.010242 1272.28492,182.655972 C1266.69505,179.301703 1266.8348,179.161942 1261.24493,175.947434 L1250.06519,169.378657 C1244.47533,166.024387 1244.47533,166.164149 1238.88546,162.949641 L1227.70572,156.380863 C1226.91,155.669076 1225.70651,155.669076 1224.91079,156.380863 C1222.11585,161.412267 1221.97611,161.272506 1219.04142,166.30391 C1216.10674,171.335314 1216.38624,171.195553 1213.45156,176.087195 L1207.58219,186.010242 C1207.06094,187.015542 1207.43218,188.253136 1208.42068,188.805466 L1218.90168,194.815198 L1229.38268,201.104453 L1239.86368,207.393708 L1250.48443,213.40344 C1255.65506,216.617948 1255.79481,216.478187 1260.96544,219.552934 C1261.88726,220.077722 1262.55655,220.954303 1262.82001,221.981879 C1263.08346,223.009454 1262.9185,224.09997 1262.3629,225.003621 L1254.11785,238.979743 C1250.06519,245.828043 1250.20494,245.967804 1246.15229,252.955865 C1245.05427,254.863239 1242.63491,255.545694 1240.70216,254.493238 L1230.22116,248.343745 L1219.74016,242.05449 L1209.25916,235.904996 L1198.77815,229.615742 L1188.29715,223.326487 C1187.2506,222.791009 1185.96818,223.157454 1185.36247,224.165054 C1181.8688,230.174786 1182.14829,230.314548 1178.51488,236.464041 L1171.3878,248.483506 L1163.98122,260.502971 C1163.45997,261.508271 1163.83121,262.745865 1164.8197,263.298195 C1170.54932,266.652464 1170.68906,266.512703 1176.55843,269.866972 C1182.42779,273.221241 1182.14829,273.500764 1188.01766,276.994794 L1199.61663,283.703333 L1211.21561,290.27211 C1217.08497,293.76614 1216.80548,294.045663 1222.67484,297.399932 C1228.5442,300.754201 1228.5442,300.754201 1234.27382,304.108471 C1235.19564,304.633259 1235.86493,305.50984 1236.12839,306.537415 C1236.39184,307.564991 1236.22688,308.655507 1235.67128,309.559158 C1232.87635,314.590562 1232.7366,314.450801 1229.66217,319.482204 L1223.79281,329.545012 C1220.85813,334.436655 1221.13763,334.716177 1218.20294,339.60782 C1217.65484,340.506408 1216.76789,341.146285 1215.74237,341.382969 C1214.71684,341.619653 1213.63922,341.433186 1212.75282,340.865671 L1201.0141,333.87761 C1195.14474,330.523341 1195.00499,330.663102 1189.13563,327.169071 L1177.39691,320.320772 L1165.65818,313.612233 L1165.0992,313.053188 Z" id="Shape"></path>
                <path d="M1271.86568,390.341142 L1263.76037,381.536185 C1262.2517,379.924083 1262.2517,377.418078 1263.76037,375.805975 L1273.68239,366.721496 C1278.71327,362.249137 1278.57352,362.109376 1283.6044,357.497256 L1293.38667,348.412777 L1303.30869,339.188536 L1313.23071,330.243818 L1322.87323,320.879817 L1332.79525,311.795338 C1337.68638,307.183217 1337.82613,307.322979 1342.85701,302.710858 L1352.77903,293.626379 C1357.67016,289.15402 1357.67016,289.014259 1362.5613,284.402139 C1367.45243,279.790019 1367.31268,279.790019 1372.20382,275.177898 L1382.26558,266.093419 L1392.04785,257.00894 L1401.83012,247.7847 C1406.861,243.17258 1407.00075,243.312341 1411.89188,238.839982 C1413.50382,237.331156 1416.00956,237.331156 1417.6215,238.839982 C1421.95365,243.591863 1421.95365,243.731625 1426.42554,248.483506 L1435.08984,258.266791 L1444.03363,267.770554 L1452.97742,277.414078 C1457.30956,282.165959 1457.58906,282.026198 1461.92121,286.77808 C1464.77969,289.966251 1467.43988,293.326835 1469.88677,296.840887 C1472.52955,300.225465 1474.95663,303.773101 1477.1536,307.46274 C1479.24117,311.169328 1481.10771,314.99615 1482.74346,318.92316 C1484.42523,322.844891 1485.73528,326.915815 1486.65637,331.082386 C1487.552,335.261097 1487.9739,339.527442 1487.91409,343.800656 C1488.10348,348.070828 1487.72756,352.3473 1486.79612,356.518927 C1485.76329,360.681196 1484.26313,364.713304 1482.32422,368.538392 C1480.55251,372.422685 1478.39914,376.121244 1475.89588,379.579528 C1473.17057,382.892562 1470.17937,385.977555 1466.95209,388.803768 C1463.47614,392.061092 1459.68424,394.963837 1455.6326,397.468964 C1451.55355,399.979561 1447.19086,401.996925 1442.63616,403.478696 C1438.13889,405.157942 1433.44042,406.238701 1428.66149,406.693204 C1424.01875,407.230468 1419.32955,407.230468 1414.68682,406.693204 C1409.93069,406.103836 1405.24782,405.026663 1400.71215,403.478696 C1399.67064,403.087721 1398.50515,403.578506 1398.05696,404.596786 C1396.10051,410.74628 1396.24025,410.886041 1394.2838,417.035534 C1392.32734,423.185028 1392.32734,423.185028 1390.37089,429.474283 C1388.41444,435.763538 1387.9952,435.484015 1386.03874,441.77327 L1382.12583,454.072257 C1380.16938,460.361512 1380.02963,460.361512 1378.07318,466.511005 C1376.11673,472.660499 1376.25647,472.80026 1374.30002,478.949754 C1372.34356,485.099247 1372.20382,485.099247 1370.24736,491.248741 C1370.33681,491.568717 1370.33681,491.907094 1370.24736,492.22707 C1369.32027,493.15106 1367.82054,493.15106 1366.89344,492.22707 C1362.14206,487.055904 1362.2818,486.916143 1357.53041,481.605217 C1352.77903,476.294291 1352.49953,476.573813 1347.74814,471.402648 C1342.99676,466.231483 1342.85701,466.371244 1337.96587,461.060318 C1336.28265,459.205014 1335.7467,456.578586 1336.56841,454.212018 L1340.76081,441.353986 C1342.85701,434.92497 1343.1365,435.064732 1345.09296,428.635715 C1347.04941,422.206699 1347.04941,422.206699 1349.14561,415.777683 C1351.24181,409.348667 1350.96232,409.348667 1353.05852,402.919651 C1355.15472,396.490635 1355.29447,396.630397 1357.39067,390.201381 C1359.48687,383.772365 1359.48687,383.772365 1361.44332,377.48311 C1362.07285,376.453651 1362.07285,375.1583 1361.44332,374.128841 L1349.00586,360.152719 C1348.63788,359.777104 1348.1342,359.565436 1347.6084,359.565436 C1347.08259,359.565436 1346.57892,359.777104 1346.21093,360.152719 L1336.00942,369.656482 L1325.66816,379.020483 L1315.6064,388.524246 C1310.43577,393.276127 1310.29603,393.136366 1305.26514,397.888248 L1295.06363,407.39201 C1294.35192,408.135249 1293.36757,408.555544 1292.33857,408.555544 C1291.30958,408.555544 1290.32523,408.135249 1289.61351,407.39201 C1285.56086,402.919651 1285.56086,402.919651 1281.36846,398.587054 C1277.17606,394.254456 1277.17606,394.254456 1273.1234,389.921858 L1271.86568,390.341142 Z M1392.46709,350.928478 C1395.44349,354.081033 1398.7197,356.936312 1402.24936,359.453913 C1405.82602,361.979594 1409.8608,363.783562 1414.12783,364.764839 C1418.34104,365.878645 1422.77132,365.878645 1426.98453,364.764839 C1431.45732,362.954588 1435.5382,360.296995 1439.00275,356.938211 C1441.90804,354.410921 1444.20164,351.256891 1445.71059,347.71397 C1447.05333,343.676454 1447.05333,339.312738 1445.71059,335.275222 C1444.45541,331.256131 1442.61927,327.442223 1440.26047,323.954563 C1437.75185,320.582509 1435.04532,317.362339 1432.15516,314.311039 C1428.1025,309.978442 1428.24225,309.83868 1424.32934,305.645844 C1420.41643,301.453007 1420.13694,301.453007 1416.08428,297.260171 C1415.76676,296.848683 1415.27641,296.607687 1414.75669,296.607687 C1414.23697,296.607687 1413.74662,296.848683 1413.4291,297.260171 L1404.34556,305.785605 L1395.26203,314.450801 L1385.899,322.696712 C1381.28735,327.02931 1381.4271,327.169071 1376.81546,331.361908 C1376.40401,331.679466 1376.16304,332.169866 1376.16304,332.68964 C1376.16304,333.209414 1376.40401,333.699814 1376.81546,334.017371 L1384.64128,342.682567 L1392.46709,350.928478 Z" id="Shape"></path>
                <path d="M1418.73947,595.510609 C1416.72347,591.636386 1414.99526,587.619051 1413.56884,583.491145 C1412.07923,579.395474 1410.91113,575.189897 1410.07518,570.912635 C1409.2367,566.580037 1408.39822,562.387201 1407.97898,558.054603 C1407.55974,553.722005 1407.97898,549.249646 1407.97898,544.917049 C1407.97898,540.584451 1407.97898,536.251853 1408.9572,531.919255 C1409.93543,527.586658 1410.21492,523.393821 1411.0534,519.061223 C1411.24013,517.946568 1411.97557,517.000899 1413.00986,516.545521 C1413.85724,516.18023 1414.81767,516.18023 1415.66504,516.545521 C1421.39466,517.803372 1421.39466,517.52385 1427.12427,518.921462 L1438.44376,521.576925 C1444.03363,522.974537 1444.03363,522.834776 1449.76324,524.092627 C1450.87702,524.372212 1451.80287,525.143834 1452.27868,526.189045 C1452.63646,527.086435 1452.63646,528.086881 1452.27868,528.98427 C1452.27868,533.177106 1451.30046,537.09042 1451.02096,541.143496 C1450.60171,545.139014 1450.60171,549.167443 1451.02096,553.16296 C1451.32325,557.182685 1452.02546,561.162262 1453.11716,565.042664 C1454.40315,568.868383 1455.94381,572.603703 1457.7288,576.223561 C1459.55955,580.068055 1461.91073,583.642218 1464.71614,586.845414 C1467.4026,590.205486 1470.9188,592.806787 1474.91765,594.39252 C1479.10753,595.692489 1483.64533,595.238662 1487.49485,593.134669 C1491.18525,591.335775 1494.0388,588.181521 1495.46042,584.329712 C1496.84091,580.510638 1497.64169,576.506321 1497.83611,572.450008 C1498.04147,568.399535 1498.04147,564.341256 1497.83611,560.290783 C1497.83611,556.51723 1497.83611,552.464154 1497.83611,548.271318 C1497.83611,544.078481 1496.99763,539.3266 1496.71814,534.295196 C1496.43864,529.263792 1496.71814,525.350478 1496.71814,520.319074 C1496.73672,515.643928 1497.0635,510.975094 1497.69636,506.342953 C1498.43224,501.90633 1499.60242,497.552798 1501.19003,493.345159 C1502.73354,489.143102 1504.79937,485.15188 1507.33889,481.465456 C1509.90625,477.76389 1512.96171,474.426042 1516.42242,471.542409 C1520.16004,468.551383 1524.24163,466.017722 1528.58039,463.995304 C1532.25588,462.231122 1536.09353,460.82696 1540.03962,459.802467 C1544.28168,458.628651 1548.6401,457.925607 1553.03606,457.706049 C1557.45647,457.609825 1561.87102,458.079508 1566.17225,459.103661 C1570.46239,459.963218 1574.63678,461.323555 1578.60971,463.156736 C1582.61779,465.082056 1586.41189,467.424337 1589.92919,470.144797 C1593.44839,472.727507 1596.72291,475.628094 1599.71146,478.809993 C1602.80456,481.954389 1605.61065,485.368812 1608.09626,489.012562 C1610.65752,492.583596 1612.90199,496.371543 1614.80411,500.33322 C1616.95122,504.567884 1618.77318,508.959735 1620.25423,513.470775 C1621.7285,518.019099 1622.75813,522.699726 1623.32865,527.446896 C1624.00928,532.072843 1624.28982,536.748868 1624.16713,541.423018 C1623.8612,546.123674 1623.20725,550.795182 1622.21068,555.39914 C1621.40592,560.115188 1620.33279,564.781477 1618.99651,569.375262 C1618.6228,570.403532 1617.87394,571.252329 1616.90031,571.751202 C1615.9077,572.114589 1614.81848,572.114589 1613.82588,571.751202 L1602.78589,567.97765 L1591.88564,564.064335 L1580.70591,560.570305 C1579.65389,560.237724 1578.79116,559.476413 1578.33021,558.473887 C1577.90395,557.590908 1577.90395,556.561641 1578.33021,555.678662 C1579.62791,551.726841 1580.51761,547.65252 1580.9854,543.519436 C1581.58989,539.442061 1581.58989,535.297824 1580.9854,531.220449 C1580.07094,527.176058 1578.61368,523.273956 1576.65325,519.620268 C1575.03731,516.148924 1572.9698,512.90635 1570.5044,509.976744 C1567.95853,507.043459 1564.87532,504.624077 1561.42086,502.848922 C1557.94764,501.10411 1553.85409,501.10411 1550.38087,502.848922 C1545.95677,505.188848 1543.01319,509.604684 1542.55506,514.588864 C1542.1442,519.238511 1542.1442,523.915339 1542.55506,528.564986 C1542.55506,532.897584 1542.55506,537.928988 1542.55506,543.239914 C1542.55506,548.55084 1543.39354,551.625587 1543.67303,555.958185 C1543.95252,560.290783 1543.67303,564.343858 1543.67303,568.536694 C1543.67303,572.729531 1543.67303,577.062129 1542.55506,581.254965 C1542.18268,585.470461 1541.38677,589.637736 1540.17936,593.693714 C1539.04535,597.774396 1537.45132,601.712979 1535.42797,605.433656 C1533.30627,609.073527 1530.825,612.491477 1528.0214,615.636225 C1525.10818,618.665051 1521.9277,621.424873 1518.51862,623.882137 C1515.29757,626.184024 1511.93723,628.284452 1508.45686,630.171391 C1504.00155,632.266503 1499.30927,633.815117 1494.48219,634.783512 C1489.91517,635.939676 1485.21839,636.503349 1480.50752,636.460646 C1475.80539,636.492969 1471.11552,635.97703 1466.53285,634.923273 C1462.14366,633.964745 1457.87739,632.51125 1453.8159,630.590675 C1449.81222,628.63087 1445.97916,626.340146 1442.35667,623.742375 C1438.82943,620.963153 1435.55583,617.876293 1432.5744,614.518135 C1429.56462,611.237943 1426.80833,607.733832 1424.32934,604.036044 C1421.84764,600.316762 1419.60709,596.442077 1417.6215,592.435863 L1418.73947,595.510609 Z" id="Shape"></path>
            </g>
            <path d="M2016.13297,1065.12065 L1951.9638,1037.37287 C1948.29243,1035.82938 1945.63141,1033.09983 1944.65999,1029.88097 L1931.44358,963.147547 C1930.40017,958.014207 1923.79197,956.210602 1920.31396,960.095291 L1873.70871,1011.01247 C1871.26737,1013.77499 1867.13882,1015.26251 1862.9269,1014.89716 L1793.36681,1006.57283 C1787.97591,1006.57283 1784.1501,1011.42869 1786.93251,1015.86834 L1821.71255,1074.5549 C1823.69926,1078.13318 1823.69926,1082.21447 1821.71255,1085.79275 L1791.97561,1147.39283 C1789.71491,1152.10996 1794.06242,1157.38203 1799.27942,1156.27212 L1869.0134,1140.8721 C1873.14927,1140.11346 1877.46595,1141.29729 1880.14302,1143.92436 L1931.26967,1190.26316 C1935.26938,1193.87037 1941.52979,1191.51181 1942.22539,1186.37847 L1949.0075,1118.67388 C1949.33533,1114.97144 1951.68864,1111.57167 1955.4418,1109.37837 L2016.65467,1076.35851 C2018.85517,1074.98834 2020.09734,1072.85864 2019.99403,1070.6332 C2019.89072,1068.40776 2018.45448,1066.3572 2016.13297,1065.12065 L2016.13297,1065.12065 Z" id="Shape" fill="#FFFFFF" fill-rule="nonzero"></path>
            <path d="M296.963799,1037.37287 C293.292427,1035.82938 290.631408,1033.09983 289.65999,1029.88097 L276.443575,963.147547 C275.400174,958.014207 268.791966,956.210602 265.313962,960.095291 L218.708708,1011.01247 C216.267365,1013.77499 212.138817,1015.26251 207.926896,1014.89716 L138.366815,1006.57283 C132.975909,1006.57283 129.150104,1011.42869 131.932507,1015.86834 L166.712548,1074.5549 C168.69926,1078.13318 168.69926,1082.21447 166.712548,1085.79275 L136.975613,1147.39283 C134.714911,1152.10996 139.062416,1157.38203 144.279422,1156.27212 L214.013403,1140.8721 C218.149265,1140.11346 222.465949,1141.29729 225.143016,1143.92436 L276.269675,1190.26316 C280.26938,1193.87037 286.529787,1191.51181 287.225388,1186.37847 L294.007496,1118.67388 C294.335326,1114.97144 296.688635,1111.57167 300.441803,1109.37837 L361.654674,1076.35851 C363.855165,1074.98834 365.097341,1072.85864 364.994028,1070.6332 C364.890716,1068.40776 363.454477,1066.3572 361.132973,1065.12065 L296.963799,1037.37287 Z" id="Shape" fill="#FFFFFF" fill-rule="nonzero" transform="translate(248.000000, 1075.000000) scale(-1, 1) translate(-248.000000, -1075.000000) "></path>
            <g id="Waveforms" transform="translate(445.000000, 499.000000)" fill="#FFFFFF" fill-rule="nonzero">
                <g id="Top" transform="translate(275.000000, 0.000000)">
                    <path d="M349.675172,172.342432 C357.529759,172.342432 363.70122,96.0892842 363.70122,48.6886789 C363.70122,-16.298238 335.649123,-16.1608449 335.649123,48.6886789 C335.508863,95.9518911 341.960845,172.342432 349.675172,172.342432 Z" id="Shape"></path>
                    <path d="M256.121429,177.242542 C263.835756,175.593825 257.804555,112.393018 250.090228,74.0603544 C239.710952,21.3014198 211.939377,27.0719283 222.038131,79.6934698 C230.032979,118.026133 248.547363,178.891258 256.121429,177.242542 Z" id="Shape"></path>
                    <path d="M162.567686,186.081738 C169.580711,182.372125 150.505285,131.124514 135.357152,101.997186 C114.31808,60.779268 89.3517138,74.5185739 110.250526,115.736492 C125.398658,145.001213 155.694923,189.79135 162.567686,186.081738 Z" id="Shape"></path>
                    <path d="M69.0139437,192.951391 C73.6425396,187.593061 47.6943501,156.267444 29.3202268,139.642884 C4.07333968,116.835636 -12.7579184,136.482843 12.4889687,159.290091 C30.8630921,175.914651 64.3853477,198.447113 69.0139437,192.951391 Z" id="Shape"></path>
                    <path d="M443.088654,179.212085 C435.374327,177.563368 441.545789,114.362561 449.119855,76.0298976 C459.639391,23.270963 487.410967,29.0414714 477.171951,81.663013 C469.317364,119.995676 450.80298,180.860801 443.088654,179.212085 Z" id="Shape"></path>
                    <path d="M536.782657,186.081738 C529.769633,182.372125 548.845059,131.124514 563.993191,101.997186 C584.892003,60.779268 609.99863,74.5185739 589.099817,115.736492 C573.951685,145.001213 543.655421,189.79135 536.782657,186.081738 Z" id="Shape"></path>
                    <path d="M630.3364,192.951391 C625.707804,187.593061 651.655993,156.267444 670.030117,139.642884 C695.277004,116.835636 712.108262,136.482843 686.861375,159.290091 C668.487251,175.914651 634.964996,198.447113 630.3364,192.951391 Z" id="Shape"></path>
                </g>
                <g id="Bottoms" transform="translate(275.000000, 954.000000)">
                    <path d="M349.675172,21.9236278 C341.680324,21.9236278 335.649123,99.3559478 335.649123,147.489552 C335.649123,213.481421 363.70122,213.341904 363.70122,147.489552 C363.70122,99.3559478 358.090801,21.9236278 349.675172,21.9236278 Z" id="Shape"></path>
                    <path d="M443.088654,14.8082254 C435.374327,16.4824377 441.545789,80.8000945 449.119855,119.586013 C459.639391,173.300326 487.410967,167.301065 477.171951,113.72627 C469.317364,74.9403514 450.80298,13.2735307 443.088654,14.8082254 Z" id="Shape"></path>
                    <path d="M536.782657,7.97185837 C529.769633,11.8783538 548.845059,63.7789359 563.993191,93.356687 C584.892003,135.211995 609.99863,121.260226 589.099817,79.4049176 C573.951685,49.8271665 543.655421,4.06536295 536.782657,7.97185837 Z" id="Shape"></path>
                    <path d="M630.3364,0.856455991 C625.707804,6.29764605 651.655993,38.1076802 670.030117,54.9893212 C695.277004,78.1492584 712.108262,58.1982281 686.861375,35.038291 C668.487251,18.15665 634.964996,-4.72425176 630.3364,0.856455991 Z" id="Shape"></path>
                    <path d="M256.121429,14.8082254 C263.835756,16.4824377 257.804555,80.8000945 250.090228,119.586013 C239.710952,173.300326 211.939377,167.301065 222.038131,113.72627 C230.032979,74.9403514 248.547363,13.2735307 256.121429,14.8082254 Z" id="Shape"></path>
                    <path d="M162.567686,7.97185837 C169.580711,11.8783538 150.505285,63.7789359 135.357152,93.356687 C114.31808,135.211995 89.3517138,121.260226 110.250526,79.4049176 C125.398658,49.8271665 155.694923,4.06536295 162.567686,7.97185837 Z" id="Shape"></path>
                    <path d="M69.0139437,0.856455991 C73.6425396,6.29764605 47.6943501,38.1076802 29.3202268,54.9893212 C4.07333968,78.1492584 -12.7579184,58.1982281 12.4889687,35.038291 C30.8630921,18.15665 64.3853477,-4.72425176 69.0139437,0.856455991 Z" id="Shape"></path>
                </g>
                <g id="Right" transform="translate(997.000000, 418.000000)">
                    <path d="M236.432578,81.7829261 C246.666923,81.7829261 253.720323,116.55284 252.199001,159.421771 C250.67768,202.290701 243.900884,236.920977 236.847484,236.920977 C229.794084,236.920977 223.017288,202.290701 221.08106,159.421771 C219.144833,116.55284 226.336535,81.7829261 236.432578,81.7829261 Z" id="Shape"></path>
                    <path d="M161.74952,0.932402412 C172.537073,0.932402412 180.005378,70.7515075 178.484057,158.025389 C176.962735,245.29927 169.632731,315.118375 162.164426,315.118375 C154.69612,315.118375 147.089512,245.29927 145.291587,158.165027 C143.493661,71.0307839 150.961967,0.792764202 161.74952,0.932402412 Z" id="Shape"></path>
                    <path d="M85.2685363,48.5490321 C96.0560891,48.5490321 103.662697,97.8413202 102.141375,158.72358 C100.620054,219.605839 93.2900499,268.898128 85.6834422,268.898128 C78.0768344,268.898128 70.6085286,219.605839 68.8106032,158.72358 C67.0126777,97.8413202 74.4809835,48.4093938 85.2685363,48.5490321 Z" id="Shape"></path>
                    <path d="M17.2239723,109.710568 C28.0115252,109.710568 35.6181329,131.214852 34.0968114,157.885751 C32.5754898,184.556649 25.107184,205.921295 17.6388782,205.921295 C10.1705724,205.921295 2.56396466,183.718819 0.766039186,157.18756 C-1.03188629,130.6563 6.43641952,108.872739 17.2239723,109.710568 Z" id="Shape"></path>
                </g>
                <g id="Left" transform="translate(0.000000, 419.000000)">
                    <path d="M16.6815213,80.431609 C6.58547829,80.431609 -0.467921629,115.201523 0.915097964,158.070454 C2.29811756,200.939384 9.21321552,235.56966 16.4049174,235.56966 C23.5966193,235.56966 30.2351133,200.799746 32.1713408,158.070454 C34.1075682,115.341162 26.9158663,80.431609 16.6815213,80.431609 Z" id="Shape"></path>
                    <path d="M90.8113715,314.465249 C98.4179793,314.465249 105.886285,244.646144 107.684211,157.372263 C109.482136,70.0983815 102.290434,0 91.5028813,0 C80.7153285,0 73.1087207,69.819105 74.6300423,157.232625 C76.1513638,244.646144 83.4813677,314.465249 90.8113715,314.465249" id="Shape"></path>
                    <path d="M167.983865,47.7562679 C157.196312,47.7562679 149.589704,97.1881942 151.111026,158.070454 C152.632347,218.952713 159.962351,268.245002 167.568959,268.245002 C175.175567,268.245002 182.643872,218.952713 184.303496,158.070454 C185.963119,97.1881942 178.771418,47.7562679 167.983865,47.7562679 Z" id="Shape"></path>
                    <path d="M236.028429,108.219613 C225.240876,108.219613 217.634268,129.863535 219.15559,156.394795 C220.676911,182.926055 228.006915,204.569978 235.613523,204.569978 C243.220131,204.569978 250.688436,183.065693 252.486362,156.394795 C254.284287,129.723897 246.815982,108.219613 236.028429,108.219613 Z" id="Shape"></path>
                </g>
            </g>
        </g>
    </g>
</svg>